<svg width="1080" height="1080" viewBox="0 0 1080 1080" fill="none" xmlns="http://www.w3.org/2000/svg">
<g clip-path="url(#clip0_71_116)">
<rect width="1080" height="1080" fill="#010300"/>
<circle cx="550" cy="548" r="442" fill="#49A805"/>
<line x1="998.697" y1="1174.64" x2="-223.141" y2="49.5664" stroke="#49A805" stroke-width="27"/>
<line y1="-13.5" x2="1737.54" y2="-13.5" transform="matrix(-0.738329 -0.674441 0.683327 -0.730112 1207.87 994.865)" stroke="#49A805" stroke-width="27"/>
<line y1="-13.5" x2="1927.14" y2="-13.5" transform="matrix(-0.738791 -0.673934 0.682825 -0.730582 1118.76 1092.77)" stroke="#49A805" stroke-width="27"/>
<path d="M323.337 408.848C323.89 408.848 324.337 409.295 324.337 409.848V686.294C324.337 686.846 323.89 687.294 323.337 687.294H289.315C288.762 687.294 288.315 686.846 288.315 686.294V409.848C288.315 409.295 288.762 408.848 289.315 408.848H323.337ZM518.311 408.848C519.119 408.848 519.593 409.755 519.133 410.418L426.76 543.42C426.524 543.758 426.521 544.207 426.752 544.549L521.899 685.735C522.346 686.399 521.871 687.294 521.07 687.294H473.507C473.138 687.294 472.798 687.09 472.625 686.764L401.563 553.549C401.486 553.404 401.446 553.242 401.446 553.078V531.795C401.446 531.615 401.494 531.438 401.587 531.283L474.368 409.335C474.549 409.033 474.875 408.848 475.227 408.848H518.311Z" fill="white"/>
<ellipse cx="378.664" cy="443.118" rx="9.34645" ry="9.34644" fill="white"/>
<ellipse cx="359.971" cy="461.811" rx="9.34645" ry="9.34644" fill="white"/>
<ellipse cx="397.356" cy="461.811" rx="9.34645" ry="9.34644" fill="white"/>
<ellipse cx="378.664" cy="480.504" rx="9.34645" ry="9.34644" fill="white"/>
<path d="M372.433 607.008C372.433 604.246 374.671 602.008 377.433 602.008H379.895C382.656 602.008 384.895 604.246 384.895 607.008V653.086C384.895 655.848 382.656 658.086 379.895 658.086H377.433C374.671 658.086 372.433 655.848 372.433 653.086V607.008Z" fill="white"/>
<path d="M401.703 623.816C404.464 623.816 406.703 626.055 406.703 628.816V631.278C406.703 634.039 404.464 636.278 401.703 636.278L355.624 636.278C352.863 636.278 350.624 634.039 350.624 631.278L350.624 628.816C350.624 626.055 352.863 623.816 355.624 623.816L401.703 623.816Z" fill="white"/>
<path d="M622.802 679.702C622.364 679.586 622.061 679.19 622.061 678.737V647.82C622.061 647.129 622.744 646.646 623.397 646.874C652.229 656.945 683.328 661.98 716.693 661.98C764.594 661.98 788.544 644.456 788.544 609.407C788.544 579.55 770.89 564.622 735.581 564.622H699.753C641.467 564.622 612.325 539.308 612.325 488.682C612.325 435.459 649.646 408.848 724.287 408.848C756.457 408.848 786.395 412.674 814.1 420.328C814.533 420.447 814.831 420.841 814.831 421.29V452.194C814.831 452.891 814.136 453.374 813.481 453.135C785.949 443.082 756.218 438.055 724.287 438.055C673.661 438.055 648.347 454.931 648.347 488.682C648.347 518.539 665.483 533.467 699.753 533.467H735.581C794.905 533.467 824.567 558.78 824.567 609.407C824.567 663.928 788.609 691.188 716.693 691.188C683.099 691.188 651.802 687.359 622.802 679.702Z" fill="white"/>
<rect x="550.015" y="658.086" width="31.1548" height="31.1548" rx="2" fill="white"/>
</g>
<defs>
<clipPath id="clip0_71_116">
<rect width="1080" height="1080" fill="white"/>
</clipPath>
</defs>
</svg>
